<mxfile host="app.diagrams.net" agent="Mozilla/5.0 (Macintosh; Intel Mac OS X 10_15_7) AppleWebKit/537.36 (KHTML, like Gecko) Chrome/129.0.0.0 Safari/537.36" version="24.8.1">
  <diagram name="Page-1" id="tK829UG2RXVjAaz9gLrk">
    <mxGraphModel dx="954" dy="581" grid="1" gridSize="10" guides="1" tooltips="1" connect="1" arrows="1" fold="1" page="1" pageScale="1" pageWidth="827" pageHeight="1169" math="0" shadow="0">
      <root>
        <mxCell id="0" />
        <mxCell id="1" parent="0" />
        <mxCell id="Y9C_djCn_m7MnAz6KOqu-1" value="&lt;font style=&quot;font-size: 24px;&quot;&gt;Pattern Generator&lt;/font&gt;" style="rounded=0;whiteSpace=wrap;html=1;" vertex="1" parent="1">
          <mxGeometry x="290" y="260" width="150" height="70" as="geometry" />
        </mxCell>
        <mxCell id="Y9C_djCn_m7MnAz6KOqu-2" value="&lt;font style=&quot;font-size: 24px;&quot;&gt;Logic&lt;/font&gt;" style="rounded=0;whiteSpace=wrap;html=1;" vertex="1" parent="1">
          <mxGeometry x="480" y="260" width="160" height="70" as="geometry" />
        </mxCell>
        <mxCell id="Y9C_djCn_m7MnAz6KOqu-3" value="" style="rounded=0;whiteSpace=wrap;html=1;fillColor=none;" vertex="1" parent="1">
          <mxGeometry x="270" y="185" width="390" height="175" as="geometry" />
        </mxCell>
        <mxCell id="Y9C_djCn_m7MnAz6KOqu-4" value="&lt;font style=&quot;font-size: 36px;&quot;&gt;Digital&lt;/font&gt;" style="text;html=1;align=center;verticalAlign=middle;resizable=0;points=[];autosize=1;strokeColor=none;fillColor=none;" vertex="1" parent="1">
          <mxGeometry x="405" y="185" width="120" height="60" as="geometry" />
        </mxCell>
        <mxCell id="Y9C_djCn_m7MnAz6KOqu-8" value="" style="shape=flexArrow;endArrow=classic;html=1;rounded=0;entryX=0;entryY=0.5;entryDx=0;entryDy=0;exitX=1;exitY=0.5;exitDx=0;exitDy=0;" edge="1" parent="1" source="Y9C_djCn_m7MnAz6KOqu-1" target="Y9C_djCn_m7MnAz6KOqu-2">
          <mxGeometry width="50" height="50" relative="1" as="geometry">
            <mxPoint x="390" y="330" as="sourcePoint" />
            <mxPoint x="440" y="280" as="targetPoint" />
          </mxGeometry>
        </mxCell>
      </root>
    </mxGraphModel>
  </diagram>
</mxfile>
